{"buffers":[{"uri":"model.bin","byteLength":9595868},{"byteLength":45810516,"extensions":{"EXT_meshopt_compression":{"fallback":true}}}],"asset":{"version":"2.0","generator":"gltfpack 0.16"},"extensionsUsed":["KHR_mesh_quantization","EXT_meshopt_compression"],"extensionsRequired":["KHR_mesh_quantization","EXT_meshopt_compression"],"bufferViews":[{"buffer":1,"byteOffset":0,"byteLength":6018052,"byteStride":4,"target":34962,"extensions":{"EXT_meshopt_compression":{"buffer":0,"byteOffset":0,"byteLength":2276800,"byteStride":4,"mode":"ATTRIBUTES","filter":"OCTAHEDRAL","count":1504513}}},{"buffer":1,"byteOffset":6018052,"byteLength":12036104,"byteStride":8,"target":34962,"extensions":{"EXT_meshopt_compression":{"buffer":0,"byteOffset":2276800,"byteLength":4675731,"byteStride":8,"mode":"ATTRIBUTES","count":1504513}}},{"buffer":1,"byteOffset":18054156,"byteLength":27756360,"target":34963,"extensions":{"EXT_meshopt_compression":{"buffer":0,"byteOffset":6952532,"byteLength":2643336,"byteStride":4,"mode":"TRIANGLES","count":6939090}}}],"accessors":[{"bufferView":0,"byteOffset":0,"componentType":5120,"count":1504513,"type":"VEC3","normalized":true},{"bufferView":1,"byteOffset":0,"componentType":5123,"count":1504513,"type":"VEC3","min":[0,0,0],"max":[14882,16383,13192]},{"bufferView":2,"byteOffset":0,"componentType":5125,"count":6939090,"type":"SCALAR"}],"materials":[{"pbrMetallicRoughness":{"metallicFactor":0}}],"meshes":[{"primitives":[{"attributes":{"NORMAL":0,"POSITION":1},"mode":4,"indices":2,"material":0}]}],"nodes":[{"mesh":0,"translation":[-0.500100017,-0.209711999,-0.374870002],"scale":[4.42948767e-05,4.42948767e-05,4.42948767e-05]}],"scenes":[{"name":"AuxScene","nodes":[0]}],"scene":0}